<svg version="1" xmlns="http://www.w3.org/2000/svg" width="933.333" height="933.333" viewBox="0 0 700.000000 700.000000"><path d="M313.5.6c-47.4 3.8-87.4 14.8-127.7 35-44.6 22.4-81.4 52.1-113.3 91.9-21.2 26.3-42.6 65.6-54.3 99.5C6.1 262.3.7 294.8.6 334c-.1 32 2.7 55.6 10 84.5 12 47.5 36.8 95.4 68.6 133 8.4 9.9 28.8 30.4 38.3 38.5 94.7 80.7 226.1 103 339 57.5l8.7-3.6 5.2 4.9c6.6 6.2 9.7 6.9 20.8 4.2 14.9-3.5 27.8-5 44-5 47.6 0 88.5 15.5 127 48.1 7.6 6.5 17.3 4.5 22.5-4.6 3-5.2 9.7-25.9 11.7-36 10.7-54.3-3.8-108.6-40.3-151-8.6-9.9-13.2-12.8-19.7-12.3-2.4.2-4.4.2-4.4 0 0-.1 1.8-3.8 3.9-8 30.3-60.2 41.4-131.6 31.1-199.4-9.1-60-35.3-117.7-74.7-164.8C538 55.1 460.7 13.1 376 2.5 364.1 1 324-.2 313.5.6zm46 29.4c64.2 5.4 123.8 29.9 172.5 70.7 98.3 82.5 135 218 91.7 338.1-6.7 18.4-17.7 41.4-26.9 55.9l-4 6.3H582c-19.1 0-36.8-4.4-55.2-13.6-9.2-4.6-25.5-15.1-27.9-18-1-1.3 1.3-4.1 14.9-17.7 8.8-8.9 16.5-17.5 17.1-19 2.6-6.7.1-13.9-6.1-17.7-2.9-1.8-5.1-2-19.1-2-19.3 0-23.7-1-29.2-6.4-5.6-5.7-6.5-9.5-6.5-28.7 0-14.6-.2-16.8-2-19.7-3.8-6.2-12.5-9.1-18.3-6.1-1.2.6-9.5 8.3-18.4 17.2-14.3 14.2-16.4 15.9-17.8 14.7-3-2.4-16.3-23.4-19.9-31.1-8.4-18.2-11.8-33-11.9-51.9 0-14.9.7-19.8 5.9-41 4.4-17.6 4.1-20.4-3.4-27.7-17.5-17.1-39.9-30.9-63.7-39.3-39.3-13.8-82.3-13.2-121.1 1.7-10.7 4-15 7.5-16 12.8-1.1 6.1.3 9.7 7.1 17.9 23.7 28.3 38.3 61.6 43.1 97.9 2.8 21.3 1.2 48.8-4.1 69.9-2.7 10.8-2.1 12.4 10.3 24.8 28.2 28.2 42.5 60.6 43.9 99 .6 18-.9 29.1-5.7 44.1-5.4 16.5-11.7 27.9-28.5 51.5-3.4 4.7-4 6.4-4 10.5 0 2.7-.1 4.9-.2 4.9-1.4 0-21-7.2-30-11.1-82.3-35.1-147-107.1-172.7-192.1-19.7-65.1-17.6-131.9 6-196.8 5.5-15 21.5-46.3 30.9-60.5C126.4 97 197.4 49.7 280 34.2c9-1.7 17.4-2.8 36-4.5 8.1-.8 32.4-.6 43.5.3zm31 571.8c15.8 3.6 33 10.5 46 18.5l3.9 2.5-12.9 4.1c-22.1 6.9-39.3 10.5-62 13.2-13.1 1.5-47.2 1.5-60.5 0-13.8-1.6-33.3-5-34.3-6-.7-.7 9.9-8.8 19.1-14.5 13.6-8.5 33.4-16.3 48.1-19.1 11.1-2.1 40.6-1.4 52.6 1.3z"/><path d="M371.8 59.4c-13.6 3.8-23 17.4-21.4 31 2.8 23.8 31.8 34.4 48.9 17.8 6.6-6.3 8.2-10.4 8.2-20.7 0-7.3-.4-9.7-2.2-13-6.4-11.9-21.1-18.6-33.5-15.1zM466.7 119.4c-13.2 4.8-22.1 14-26.8 27.8-1.7 5.1-2 8-1.7 15.4.3 8.1.8 10 4.1 16.7 4 8.1 11.6 16.1 18.8 19.8 14.8 7.5 33.5 5.9 46.4-3.9 26.4-20 21.9-60.3-8.2-74.5-5.9-2.7-8.1-3.2-16.3-3.5-8.1-.2-10.5.1-16.3 2.2zm22.4 28.9c12.6 8.4 5.6 28.4-9.3 26.4-8.3-1.1-13.1-7.1-12.5-15.4.8-11 12.8-17 21.8-11z"/></svg>