<?xml version="1.0" encoding="iso-8859-1"?>
<svg xmlns="http://www.w3.org/2000/svg" xmlns:xlink="http://www.w3.org/1999/xlink" version="1.1" id="Layer_1" x="0px" y="0px" viewBox="0 0 24 24" style="enable-background:new 0 0 24 24;" xml:space="preserve">
<g id="XMLID_1703_">
	<circle id="XMLID_1556_" style="fill:#F8F8F8;" cx="11.504" cy="11.5" r="10.999"/>
	<path id="XMLID_1565_" style="opacity:0.05;enable-background:new    ;" d="M11.504,0.5C5.429,0.5,0.505,5.425,0.505,11.499   S5.43,22.498,11.504,22.498c6.075,0,10.999-4.925,10.999-10.999S17.578,0.5,11.504,0.5z M10.97,19.933   c-4.952,0-8.967-4.015-8.967-8.967s4.015-8.967,8.967-8.967s8.967,4.015,8.967,8.967S15.922,19.933,10.97,19.933z"/>
	<circle id="XMLID_1560_" style="fill:#FFFFFF;" cx="10.508" cy="10.504" r="7.505"/>
	<g id="XMLID_1561_">
		<path id="XMLID_1571_" style="fill:#67686B;" d="M16.353,16.032c0.081,0.097,0.141,0.209,0.239,0.293    c2.708,2.31,4.99,0.977,5.288,1.045c1.666,1.654,2.047,4.105,1.152,6.128c-1.817-1.634-4.277-2.152-6.504-1.55    c-0.093-0.109-0.186-0.217-0.289-0.32c-0.996-0.996-2.28-1.524-3.585-1.596c-0.189-0.01-0.379-0.011-0.568-0.002    c-1.066,0.051-2.076,0.497-2.928,1.141l-0.255,0.193l0.193-0.255c0.644-0.851,1.09-1.861,1.141-2.927    c0.009-0.189,0.008-0.379-0.002-0.568c-0.072-1.304-0.6-2.588-1.596-3.585c-0.103-0.103-0.211-0.196-0.32-0.289    c0.602-2.227,0.084-4.687-1.55-6.504c2.024-0.895,4.475-0.514,6.128,1.152c0.07,0.307-1.343,2.714,1.255,5.524    c0.032,0.001,0.051,0.002,0.083,0.003l1.385-1.389v0.921c0,0.663,0.537,1.2,1.2,1.2h0.921l-1.414,1.414"/>
		<path id="XMLID_1570_" style="fill:#67686B;" d="M16.328,16.061"/>
	</g>
	<path id="XMLID_1580_" style="opacity:0.1;enable-background:new    ;" d="M22.463,21.069c-1.456-1.192-3.935-1.008-6.577,0.267   c0.117,0.099,0.243,0.182,0.354,0.293c0.103,0.103,0.196,0.211,0.289,0.32c2.227-0.602,4.687-0.084,6.504,1.55   c0.537-1.215,0.605-2.583,0.221-3.841C23.027,20.125,22.774,20.596,22.463,21.069z"/>
	<path id="XMLID_1581_" style="opacity:0.2;fill:#FFFFFF;enable-background:new    ;" d="M8.319,13.74   c0.109,0.093,0.217,0.186,0.32,0.289c0.11,0.11,0.194,0.236,0.293,0.354c1.275-2.643,1.46-5.122,0.267-6.577   c0.472-0.311,0.943-0.564,1.411-0.79C9.352,6.631,7.984,6.699,6.769,7.237C8.403,9.052,8.921,11.513,8.319,13.74z"/>
	<g id="XMLID_1311_">
		<path id="XMLID_1479_" style="fill:#303C42;" d="M16.503,6.999c0.827,0,1.5-0.673,1.5-1.5s-0.673-1.5-1.5-1.5s-1.5,0.673-1.5,1.5    S15.676,6.999,16.503,6.999z M16.503,4.999c0.275,0,0.5,0.224,0.5,0.5s-0.225,0.5-0.5,0.5s-0.5-0.224-0.5-0.5    S16.228,4.999,16.503,4.999z"/>
		<circle id="XMLID_1536_" style="fill:#303C42;" cx="13.003" cy="2.999" r="1"/>
		<path id="XMLID_1888_" style="fill:#303C42;" d="M22.233,17.016c-0.066-0.066-0.15-0.112-0.241-0.132    c-0.11-0.025-0.22-0.012-0.341,0.014c0.883-1.656,1.352-3.499,1.352-5.398c0-6.341-5.159-11.5-11.5-11.5s-11.5,5.159-11.5,11.5    S5.162,23,11.503,23c1.54,0,3.038-0.32,4.465-0.925c0.061,0.066,0.122,0.131,0.179,0.199c0.126,0.147,0.323,0.206,0.512,0.159    c2.133-0.581,4.394-0.04,6.039,1.439C22.79,23.955,22.91,24,23.032,24c0.035,0,0.07-0.003,0.104-0.011    c0.157-0.033,0.288-0.14,0.353-0.287C24.489,21.441,23.984,18.754,22.233,17.016z M1.003,11.499c0-5.79,4.71-10.5,10.5-10.5    s10.5,4.71,10.5,10.5c0,2.023-0.579,3.977-1.668,5.67c-0.85,0.075-2.004-0.074-3.29-1.117l1.051-1.051    c0.143-0.143,0.186-0.358,0.108-0.545s-0.26-0.309-0.462-0.309h-0.921c-0.386,0-0.7-0.314-0.7-0.7v-0.921    c0-0.202-0.122-0.385-0.309-0.462c-0.189-0.077-0.403-0.035-0.546,0.109l-1.049,1.052c-1.589-1.957-1.118-3.618-0.911-4.35    c0.074-0.262,0.119-0.42,0.078-0.599c-0.021-0.091-0.066-0.174-0.133-0.24c-1.736-1.751-4.423-2.259-6.686-1.258    C6.419,6.843,6.312,6.974,6.278,7.131C6.245,7.287,6.289,7.451,6.395,7.57c1.479,1.644,2.018,3.901,1.44,6.04    c-0.051,0.186,0.011,0.385,0.157,0.51c0.1,0.085,0.199,0.17,0.292,0.263c0.867,0.868,1.383,2.025,1.45,3.26    c0.01,0.172,0.011,0.345,0.003,0.515c-0.044,0.892-0.403,1.808-1.041,2.65l-0.193,0.255c-0.107,0.141-0.124,0.322-0.065,0.479    C4.14,20.226,1.003,16.223,1.003,11.499z M9.23,21.744l0.231-0.174c0.843-0.638,1.759-0.998,2.649-1.04    c0.174-0.009,0.344-0.008,0.517,0.001c0.889,0.049,1.734,0.338,2.464,0.816c-1.156,0.425-2.357,0.651-3.588,0.651    C10.722,21.999,9.963,21.907,9.23,21.744z M22.804,22.667c-1.296-0.958-2.849-1.464-4.437-1.464c-0.554,0-1.111,0.062-1.664,0.187    c-0.036-0.039-0.072-0.077-0.11-0.115c-0.055-0.055-0.121-0.095-0.178-0.148c-0.002-0.002-0.004-0.003-0.006-0.005    c-1.02-0.94-2.327-1.512-3.726-1.589c-0.206-0.012-0.413-0.011-0.619-0.002c-0.571,0.027-1.147,0.158-1.71,0.385    c0.227-0.563,0.357-1.139,0.385-1.71c0.01-0.207,0.009-0.414-0.003-0.619c-0.081-1.479-0.699-2.869-1.743-3.913    c-0.037-0.037-0.075-0.073-0.113-0.108c0.483-2.138,0.015-4.353-1.277-6.101c1.653-0.477,3.473-0.066,4.756,1.098    c-0.004,0.013-0.008,0.026-0.012,0.04c-0.243,0.856-0.888,3.13,1.44,5.649c0.089,0.097,0.296,0.158,0.428,0.164    c0.146,0.011,0.277-0.046,0.377-0.146l0.552-0.554c0.115,0.725,0.689,1.298,1.414,1.413l-0.581,0.581    c-0.195,0.195-0.195,0.512,0,0.707c0.029,0.029,0.062,0.055,0.096,0.075c0.051,0.068,0.114,0.145,0.198,0.216    c2.42,2.064,4.582,1.448,5.398,1.218c0.014-0.004,0.027-0.008,0.04-0.011C22.871,19.196,23.28,21.015,22.804,22.667z"/>
	</g>
	<linearGradient id="XMLID_2_" gradientUnits="userSpaceOnUse" x1="1.081" y1="6.6402" x2="26.0224" y2="18.2705">
		<stop offset="0" style="stop-color:#FFFFFF;stop-opacity:0.2"/>
		<stop offset="1" style="stop-color:#FFFFFF;stop-opacity:0"/>
	</linearGradient>
	<path id="XMLID_1578_" style="fill:url(#XMLID_2_);" d="M23.952,20.615l-0.012-0.119c-0.174-1.34-0.765-2.543-1.707-3.48   c-0.066-0.066-0.15-0.112-0.241-0.132c-0.106-0.024-0.206-0.019-0.329,0.007c0.88-1.654,1.34-3.496,1.34-5.391   c0-6.341-5.159-11.5-11.5-11.5s-11.5,5.159-11.5,11.5S5.162,23,11.503,23c1.544,0,3.049-0.308,4.479-0.917   c0.057,0.063,0.111,0.126,0.166,0.19c0.126,0.147,0.32,0.21,0.512,0.158c2.133-0.578,4.394-0.04,6.039,1.439   c0.092,0.083,0.212,0.128,0.334,0.128c0.035,0,0.069-0.003,0.104-0.011c0.156-0.033,0.288-0.14,0.353-0.286   c0.127-0.286,0.232-0.599,0.323-0.957c0.015-0.062,0.026-0.124,0.05-0.254c0.053-0.251,0.091-0.505,0.11-0.76   c0.001-0.002,0.001-0.004,0.001-0.007l0.011-0.236C23.995,21.21,23.985,20.933,23.952,20.615z M23.444,20.56L23.444,20.56   L23.444,20.56L23.444,20.56z"/>
</g>
</svg>
